<svg version="1.1" viewBox="0 0 1024 1024" xmlns="http://www.w3.org/2000/svg" xmlns:xlink="http://www.w3.org/1999/xlink" fill="currentColor" overflow="hidden"><path d=" M 512 359.657 C 428.114 359.657 359.657 428.114 359.657 512 C 359.657 595.886 428.114 664.343 512 664.343 C 595.886 664.343 664.343 595.886 664.343 512 C 664.343 428.114 595.886 359.657 512 359.657 Z M 968.914 512 C 968.914 448.914 969.486 386.4 965.943 323.429 C 962.4 250.286 945.714 185.371 892.229 131.886 C 838.629 78.2857 773.829 61.7143 700.686 58.1714 C 637.6 54.6286 575.086 55.2 512.114 55.2 C 449.029 55.2 386.514 54.6286 323.543 58.1714 C 250.4 61.7143 185.486 78.4 132 131.886 C 78.4 185.486 61.8286 250.286 58.2857 323.429 C 54.7429 386.514 55.3143 449.029 55.3143 512 C 55.3143 574.971 54.7429 637.6 58.2857 700.571 C 61.8286 773.714 78.5143 838.629 132 892.114 C 185.6 945.714 250.4 962.286 323.543 965.829 C 386.629 969.371 449.143 968.8 512.114 968.8 C 575.2 968.8 637.714 969.371 700.686 965.829 C 773.829 962.286 838.743 945.6 892.229 892.114 C 945.829 838.514 962.4 773.714 965.943 700.571 C 969.6 637.6 968.914 575.086 968.914 512 Z M 512 746.4 C 382.286 746.4 277.6 641.714 277.6 512 C 277.6 382.286 382.286 277.6 512 277.6 C 641.714 277.6 746.4 382.286 746.4 512 C 746.4 641.714 641.714 746.4 512 746.4 Z M 756 322.743 C 725.714 322.743 701.257 298.286 701.257 268 C 701.257 237.714 725.714 213.257 756 213.257 C 786.286 213.257 810.743 237.714 810.743 268 C 810.781 298.196 786.333 322.705 756.137 322.743 C 756.091 322.743 756.046 322.743 756 322.743 Z" stroke="none" stroke-width="1" stroke-linecap="butt" fill="#FFFFFF" fill-opacity="1"/></svg>