<svg version="1.1" viewBox="0 0 1024 1024" xmlns="http://www.w3.org/2000/svg" xmlns:xlink="http://www.w3.org/1999/xlink" fill="currentColor" overflow="hidden"><path d=" M 530.11 865.484 L 639.894 865.484 L 639.894 865.551 C 621.254 865.55 577.022 865.55 530.11 865.484 L 530.11 865.484 L 530.11 865.484 Z M 335.854 161.582 C 320.034 161.858 304.077 162.889 289.769 165.573 C 274.22 168.529 260.051 172.452 245.88 179.673 C 231.505 186.964 219.125 196.94 208.047 207.738 C 197.249 218.813 187.277 231.263 179.984 245.571 C 172.83 259.742 168.839 273.842 165.881 289.456 C 163.201 303.765 162.166 319.722 161.89 335.546 C 161.823 339.123 161.823 342.425 161.753 347.584 L 161.548 657.127 C 161.548 661.047 161.616 665.312 161.616 669.991 C 161.753 681.203 161.824 685.811 161.891 691.107 C 162.167 706.928 163.202 722.888 165.882 737.196 C 167.189 744.004 168.633 750.54 170.49 756.868 C 172.899 765.052 175.925 773.034 179.985 781.011 C 187.277 795.39 197.25 807.77 208.048 818.844 C 219.126 829.644 231.576 839.618 245.881 846.91 C 260.052 854.064 274.155 858.054 289.77 861.013 C 304.079 863.693 320.035 864.724 335.855 865 C 341.152 865.07 345.76 865.137 356.974 865.275 C 367.635 865.346 376.371 865.412 382.836 865.412 L 530.041 865.412 L 530.041 592.328 L 441.515 592.328 L 441.515 490.179 L 529.423 490.179 L 529.423 395.112 C 529.423 322.13 585.829 269.85 658.741 269.85 L 753.12 271.916 L 753.12 370.005 L 681.031 370.005 C 660.19 370.005 643.265 393.05 643.265 413.961 L 643.265 490.178 L 749.614 490.178 L 734.479 592.395 L 639.897 592.395 L 639.897 865.482 L 644.438 865.482 C 650.904 865.482 659.64 865.411 670.3 865.345 C 679.173 865.274 683.921 865.207 688.114 865.207 C 689.216 865.207 690.318 865.207 691.487 865.137 C 707.307 864.861 723.268 863.83 737.576 861.146 C 753.12 858.191 767.29 854.267 781.461 847.046 C 795.836 839.754 808.216 829.782 819.294 818.98 C 830.093 807.905 840.068 795.455 847.36 781.147 C 854.514 766.977 858.501 752.876 861.46 737.261 C 864.143 722.953 865.175 706.996 865.451 691.172 C 865.518 685.875 865.588 681.267 865.726 670.056 C 865.793 659.395 865.863 650.659 865.863 644.194 L 865.863 382.596 L 865.863 375.099 C 865.863 369.869 865.793 363.68 865.726 356.662 C 865.589 345.451 865.518 340.843 865.451 335.546 C 865.175 319.723 864.144 303.765 861.46 289.456 C 858.502 273.912 854.581 259.742 847.36 245.571 C 840.068 231.196 830.093 218.812 819.294 207.738 C 808.216 196.94 795.769 186.964 781.461 179.673 C 767.29 172.518 753.187 168.528 737.576 165.573 C 723.267 162.89 707.306 161.858 691.487 161.582 C 686.19 161.511 681.582 161.445 670.371 161.307 C 659.64 161.236 650.904 161.17 644.438 161.17 L 382.835 161.17 C 376.37 161.17 367.634 161.237 356.973 161.307 C 345.759 161.444 341.151 161.511 335.854 161.582 L 335.854 161.582 Z" stroke="none" stroke-width="1" stroke-linecap="butt" fill="#FFFFFF" fill-opacity="1"/></svg>