<svg version="1.1" viewBox="0 0 1027 1024" xmlns="http://www.w3.org/2000/svg" xmlns:xlink="http://www.w3.org/1999/xlink" fill="currentColor" overflow="hidden"><path d=" M 1006.25 22.5832 C 987.499 6.80092 963.427 -1.22309 938.956 0.151415 C 890.941 1.07163 845.318 21.2844 812.377 56.2308 L 600.878 267.73 C 482.31 259.719 177.879 240.491 169.868 240.491 L 165.061 240.491 C 147.198 240.667 130.049 247.527 116.993 259.719 C 92.959 278.946 43.2888 325.412 43.2888 325.412 C 32.3899 335.807 26.5433 350.424 27.2661 365.468 C 28.9585 380.183 38.9183 392.633 52.9024 397.514 C 65.7205 402.32 264.402 477.627 357.333 511.275 L 230.754 641.058 L 209.925 641.058 C 171.47 641.058 112.186 639.456 88.1522 639.456 L 80.1409 639.456 C 72.1296 639.456 57.7092 636.251 17.6525 669.899 L 14.448 673.104 C 5.65991 681.506 0.487909 692.999 0.0275626 705.149 C -0.407247 716.231 4.32857 726.886 12.8457 733.99 C 19.2548 740.399 110.584 796.478 184.288 841.342 C 201.913 870.182 283.629 999.966 286.833 1006.38 C 292.798 1016.8 303.678 1023.45 315.674 1024 L 317.276 1024 C 330.854 1022.87 343.476 1016.56 352.526 1006.38 C 386.174 967.921 381.367 950.296 381.367 943.887 L 381.367 796.478 L 512.753 671.501 C 546.401 762.831 618.503 961.512 624.912 972.727 C 629.173 987.139 641.961 997.37 656.957 998.364 L 661.764 998.364 C 675.552 997.53 688.602 991.855 698.616 982.341 C 698.616 982.341 745.082 932.671 764.309 908.637 C 777.27 893.501 784.125 874.078 783.536 854.16 C 783.536 847.751 764.309 544.922 757.9 426.354 L 969.399 214.855 C 1046.31 141.151 1033.49 49.8217 1006.25 22.5832 Z M 88.1522 701.944 C 86.55 700.342 86.55 701.944 88.1522 701.944 Z M 926.138 169.992 L 714.639 381.491 L 693.809 402.32 L 695.411 431.161 C 698.616 490.445 705.025 599.399 711.434 690.728 C 716.241 772.444 721.048 850.955 721.048 857.364 C 721.048 863.773 721.048 862.171 716.241 868.58 C 706.627 879.796 689.002 899.023 674.582 915.046 C 652.15 852.557 602.48 721.172 576.844 647.467 L 543.196 552.934 L 472.696 623.433 L 341.31 748.41 L 323.685 766.035 L 323.685 931.069 C 322.083 927.864 320.481 926.262 318.879 923.057 C 293.242 881.398 256.39 822.114 245.174 804.489 L 237.163 791.671 L 224.345 783.66 L 92.959 701.944 L 264.402 701.944 L 282.027 684.319 L 408.606 554.536 L 479.105 484.036 L 384.572 448.786 C 314.072 423.15 177.879 371.877 115.391 347.843 C 131.413 333.423 150.641 315.798 161.857 306.184 C 163.938 304.008 166.86 302.84 169.868 302.98 L 171.47 302.98 C 177.879 302.98 266.004 309.389 350.924 314.196 C 440.651 320.605 543.196 327.014 600.878 330.218 L 629.719 331.821 L 650.548 310.991 L 862.047 99.492 C 882.711 76.9365 911.588 63.6532 942.161 62.6398 C 949.253 62.2008 956.357 63.2937 962.99 65.8444 C 968.82 104.531 955.002 143.581 926.138 169.992 Z" stroke="none" stroke-width="1" stroke-linecap="butt" fill="#FFFFFF" fill-opacity="1"/></svg>