<svg version="1.1" viewBox="0 0 1025 1024" xmlns="http://www.w3.org/2000/svg" xmlns:xlink="http://www.w3.org/1999/xlink" fill="currentColor" overflow="hidden"><path d=" M 1024.03 194.432 C 986.368 211.136 945.856 222.432 903.36 227.52 C 946.72 201.504 980.032 160.352 995.744 111.296 C 955.136 135.36 910.176 152.864 862.336 162.272 C 824 121.44 769.408 95.936 708.992 95.936 C 592.96 95.936 498.912 189.984 498.912 306.016 C 498.912 322.496 500.768 338.528 504.352 353.888 C 329.76 345.12 174.944 261.472 71.328 134.368 C 53.248 165.408 42.88 201.472 42.88 240 C 42.88 312.896 79.968 377.184 136.352 414.88 C 101.92 413.792 69.536 404.352 41.184 388.608 C 41.152 389.472 41.152 390.368 41.152 391.264 C 41.152 493.056 113.568 577.952 209.664 597.248 C 192.032 602.048 173.472 604.608 154.304 604.608 C 140.768 604.608 127.616 603.296 114.784 600.832 C 141.504 684.288 219.104 745.024 311.04 746.72 C 239.136 803.072 148.544 836.64 50.112 836.64 C 33.152 836.64 16.448 835.648 -9.23706e-14 833.696 C 92.96 893.312 203.392 928.096 322.048 928.096 C 708.48 928.096 919.776 607.968 919.776 330.336 C 919.776 321.216 919.584 312.16 919.168 303.168 C 960.224 273.536 995.84 236.544 1024 194.432 Z" stroke="none" stroke-width="1" stroke-linecap="butt" fill="#FFFFFF" fill-opacity="1"/></svg>